<svg width="100" height="40" viewBox="0 0 100 40" fill="none" xmlns="http://www.w3.org/2000/svg">
<rect x="1" y="1" width="98" height="38" stroke="#E7B35A" stroke-width="2"/>
<path d="M35 0.5C35 15.9257 35 24.5743 35 40" stroke="#E7B35A" stroke-width="2"/>
<path d="M35.5 20H99" stroke="#E7B35A" stroke-width="2"/>
<path d="M21.5664 25.875H14.4336C13.7604 25.4023 13.123 24.8581 12.5215 24.2422C12.0345 24.4141 11.569 24.5 11.125 24.5C9.97917 24.5 9.00521 24.0954 8.20312 23.2861C7.40104 22.4769 7 21.5065 7 20.375C7 19.4727 7.26497 18.667 7.79492 17.958C8.32487 17.249 9.00521 16.7513 9.83594 16.4648C9.85026 16.3789 9.85742 16.3073 9.85742 16.25H26.1426C26.2142 16.7513 26.25 17.668 26.25 19C26.25 19.6445 26.0996 20.3177 25.7988 21.0195C25.498 21.7214 25.1042 22.373 24.6172 22.9746C24.1302 23.5762 23.6325 24.1169 23.124 24.5967C22.6156 25.0765 22.0964 25.5026 21.5664 25.875ZM9.75 19C9.75 18.7852 9.75716 18.4486 9.77148 17.9902C9.3418 18.2337 9.00163 18.5667 8.75098 18.9893C8.50033 19.4118 8.375 19.8737 8.375 20.375C8.375 21.1341 8.64355 21.7822 9.18066 22.3193C9.71777 22.8564 10.3659 23.125 11.125 23.125C11.1823 23.125 11.2969 23.1107 11.4688 23.082C10.3229 21.6354 9.75 20.2747 9.75 19ZM19.375 12.125C19.375 12.4544 19.4395 12.8483 19.5684 13.3066C20.127 13.7077 20.4922 14.2305 20.6641 14.875H19.2891C19.2604 14.6745 19.2246 14.5026 19.1816 14.3594C18.3939 13.8151 18 13.0703 18 12.125C18 11.3659 18.2686 10.7178 18.8057 10.1807C19.3428 9.64355 19.9909 9.375 20.75 9.375C20.9648 9.375 21.194 9.40365 21.4375 9.46094C20.8359 9.61849 20.3418 9.94076 19.9551 10.4277C19.5684 10.9147 19.375 11.4805 19.375 12.125ZM15.25 10.75C15.25 11.0794 15.3145 11.4733 15.4434 11.9316C16.2311 12.4902 16.625 13.2422 16.625 14.1875C16.625 14.388 16.5892 14.6172 16.5176 14.875H15.1641C15.2214 14.6172 15.25 14.388 15.25 14.1875C15.25 13.8438 15.1855 13.4427 15.0566 12.9844C14.2689 12.4401 13.875 11.6953 13.875 10.75C13.875 9.99089 14.1436 9.34277 14.6807 8.80566C15.2178 8.26855 15.8659 8 16.625 8C16.8398 8 17.069 8.02865 17.3125 8.08594C16.7109 8.24349 16.2168 8.56576 15.8301 9.05273C15.4434 9.53971 15.25 10.1055 15.25 10.75ZM23.5 30H12.5C11.7122 30 10.8815 29.846 10.0078 29.5381C9.13411 29.2301 8.41439 28.8577 7.84863 28.4209C7.28288 27.984 7 27.5938 7 27.25H29C29 27.5938 28.7171 27.984 28.1514 28.4209C27.5856 28.8577 26.8659 29.2301 25.9922 29.5381C25.1185 29.846 24.2878 30 23.5 30Z" fill="white"/>
<path d="M42.0981 7.89062V8.85938H41.5044V9.60938H42.0981V11.8984C42.0981 12.7031 42.4497 13.0195 43.3442 13.0195C43.5513 13.0195 43.7427 13.0039 43.8481 12.9805V12.2383C43.7856 12.25 43.6606 12.2578 43.5708 12.2578C43.227 12.2578 43.0708 12.1016 43.0708 11.7617V9.60938H43.852V8.85938H43.0708V7.89062H42.0981ZM46.6634 13H47.6361V10.6211C47.6361 10.0117 47.9916 9.60547 48.5775 9.60547C49.14 9.60547 49.4291 9.95312 49.4291 10.5312V13H50.4017V10.332C50.4017 9.38281 49.8666 8.78125 48.9525 8.78125C48.3236 8.78125 47.8666 9.06641 47.6439 9.57031H47.6244V7.36328H46.6634V13ZM55.0881 9.52734C55.6467 9.52734 56.0217 9.9375 56.0413 10.5234H54.1077C54.1467 9.94531 54.5413 9.52734 55.0881 9.52734ZM56.0452 11.7617C55.9397 12.1055 55.5959 12.332 55.1428 12.332C54.5061 12.332 54.0998 11.8867 54.0998 11.2227V11.1641H56.9944V10.8477C56.9944 9.58984 56.26 8.77344 55.0842 8.77344C53.8889 8.77344 53.1311 9.63672 53.1311 10.9453C53.1311 12.2656 53.8811 13.082 55.1233 13.082C56.1038 13.082 56.8303 12.543 56.9553 11.7617H56.0452ZM63.3906 10.0469C63.3906 10.6445 63.7773 11.043 64.543 11.2227L65.2969 11.3984C65.6992 11.5 65.8516 11.6289 65.8516 11.8711C65.8516 12.1797 65.5586 12.3711 65.0859 12.3711C64.5938 12.3711 64.3008 12.1602 64.2422 11.7812H63.2852C63.3516 12.5664 64.0117 13.082 65.0508 13.082C66.0977 13.082 66.8203 12.5547 66.8203 11.7734C66.8203 11.1602 66.4961 10.8398 65.668 10.6445L64.9297 10.4805C64.5234 10.3828 64.3359 10.2266 64.3359 9.99219C64.3359 9.69141 64.6172 9.48828 65.0469 9.48828C65.5 9.48828 65.7852 9.70703 65.8164 10.0625H66.7227C66.6992 9.29688 66.0391 8.77344 65.0664 8.77344C64.0586 8.77344 63.3906 9.28906 63.3906 10.0469ZM71.3466 9.52734C71.9052 9.52734 72.2802 9.9375 72.2997 10.5234H70.3661C70.4052 9.94531 70.7997 9.52734 71.3466 9.52734ZM72.3036 11.7617C72.1981 12.1055 71.8544 12.332 71.4012 12.332C70.7645 12.332 70.3583 11.8867 70.3583 11.2227V11.1641H73.2528V10.8477C73.2528 9.58984 72.5184 8.77344 71.3427 8.77344C70.1473 8.77344 69.3895 9.63672 69.3895 10.9453C69.3895 12.2656 70.1395 13.082 71.3817 13.082C72.3622 13.082 73.0887 12.543 73.2137 11.7617H72.3036ZM79.6072 8.85938H78.5916L77.6306 12.0977H77.6111L76.6502 8.85938H75.6111L77.0798 13H78.1502L79.6072 8.85938ZM83.8444 9.52734C84.403 9.52734 84.778 9.9375 84.7975 10.5234H82.8639C82.903 9.94531 83.2975 9.52734 83.8444 9.52734ZM84.8014 11.7617C84.6959 12.1055 84.3522 12.332 83.8991 12.332C83.2623 12.332 82.8561 11.8867 82.8561 11.2227V11.1641H85.7506V10.8477C85.7506 9.58984 85.0163 8.77344 83.8405 8.77344C82.6452 8.77344 81.8873 9.63672 81.8873 10.9453C81.8873 12.2656 82.6373 13.082 83.8795 13.082C84.86 13.082 85.5866 12.543 85.7116 11.7617H84.8014ZM88.4995 13H89.4722V10.6016C89.4722 10.0078 89.8277 9.60547 90.3862 9.60547C90.9409 9.60547 91.2144 9.93359 91.2144 10.5195V13H92.187V10.3242C92.187 9.36719 91.6675 8.78125 90.7534 8.78125C90.1167 8.78125 89.6753 9.07812 89.4527 9.57031H89.4331V8.85938H88.4995V13Z" fill="white"/>
<path d="M43.8719 34.1406C45.8699 34.1406 47.2527 33.0449 47.5164 31.2344H46.034C45.7996 32.2539 44.9969 32.8574 43.8777 32.8574C42.4129 32.8574 41.4871 31.668 41.4871 29.7695C41.4871 27.8828 42.4188 26.6875 43.8719 26.6875C44.9676 26.6875 45.8289 27.3848 46.0281 28.4453H47.5164C47.3289 26.6289 45.8348 25.4043 43.8719 25.4043C41.4695 25.4043 39.9402 27.0742 39.9402 29.7695C39.9402 32.4824 41.4578 34.1406 43.8719 34.1406ZM54.6114 25.4043C52.1446 25.4043 50.5977 27.0859 50.5977 29.7754C50.5977 32.4648 52.1446 34.1406 54.6114 34.1406C57.0723 34.1406 58.6192 32.4648 58.6192 29.7754C58.6192 27.0859 57.0723 25.4043 54.6114 25.4043ZM54.6114 26.6934C56.1173 26.6934 57.0782 27.8887 57.0782 29.7754C57.0782 31.6562 56.1173 32.8516 54.6114 32.8516C53.0997 32.8516 52.1446 31.6562 52.1446 29.7754C52.1446 27.8887 53.0997 26.6934 54.6114 26.6934ZM63.558 34V30.5488H67.1029V29.3184H63.558V26.8223H67.4369V25.5449H62.0463V34H63.558ZM72.2702 34V30.5488H75.8151V29.3184H72.2702V26.8223H76.1491V25.5449H70.7584V34H72.2702ZM84.9433 32.7227H80.9823V30.3086H84.7265V29.1074H80.9823V26.8223H84.9433V25.5449H79.4706V34H84.9433V32.7227ZM93.9484 32.7227H89.9875V30.3086H93.7316V29.1074H89.9875V26.8223H93.9484V25.5449H88.4758V34H93.9484V32.7227Z" fill="white"/>
</svg>
