<svg width="71" height="20" viewBox="0 0 71 20" fill="none" xmlns="http://www.w3.org/2000/svg">
<path d="M12.2296 15.6101H6.2856C5.72462 15.2162 5.19348 14.7627 4.69218 14.2494C4.28636 14.3927 3.89845 14.4643 3.52844 14.4643C2.57358 14.4643 1.76195 14.1271 1.09355 13.4527C0.425144 12.7784 0.0909424 11.9697 0.0909424 11.0268C0.0909424 10.2748 0.311754 9.60344 0.753377 9.01262C1.195 8.4218 1.76195 8.00703 2.45422 7.76831C2.46616 7.6967 2.47213 7.63702 2.47213 7.58928H16.0431C16.1028 8.00703 16.1326 8.77092 16.1326 9.88094C16.1326 10.4181 16.0073 10.979 15.7566 11.5639C15.506 12.1487 15.1777 12.6918 14.7719 13.1931C14.3661 13.6944 13.9513 14.145 13.5276 14.5448C13.1039 14.9447 12.6712 15.2998 12.2296 15.6101ZM2.38261 9.88094C2.38261 9.70191 2.38858 9.42142 2.40051 9.03947C2.04244 9.24238 1.75897 9.51989 1.55009 9.87199C1.34121 10.2241 1.23678 10.609 1.23678 11.0268C1.23678 11.6594 1.46057 12.1995 1.90816 12.6471C2.35575 13.0946 2.89585 13.3184 3.52844 13.3184C3.57619 13.3184 3.67167 13.3065 3.8149 13.2826C2.86004 12.0771 2.38261 10.9432 2.38261 9.88094ZM10.4034 4.15178C10.4034 4.4263 10.4572 4.75453 10.5646 5.13648C11.0301 5.47068 11.3344 5.90634 11.4777 6.44345H10.3318C10.308 6.27634 10.2781 6.13312 10.2423 6.01376C9.58584 5.5602 9.25761 4.93954 9.25761 4.15178C9.25761 3.51918 9.4814 2.97909 9.92899 2.5315C10.3766 2.08391 10.9167 1.86011 11.5493 1.86011C11.7283 1.86011 11.9193 1.88398 12.1222 1.93173C11.6209 2.06302 11.2091 2.33158 10.8868 2.73739C10.5646 3.14321 10.4034 3.61467 10.4034 4.15178ZM6.96594 3.00595C6.96594 3.28047 7.01965 3.6087 7.12707 3.99065C7.78354 4.45614 8.11177 5.08277 8.11177 5.87053C8.11177 6.03763 8.08194 6.2286 8.02226 6.44345H6.89433C6.94207 6.2286 6.96594 6.03763 6.96594 5.87053C6.96594 5.58407 6.91223 5.24987 6.80481 4.86792C6.14834 4.41437 5.82011 3.79371 5.82011 3.00595C5.82011 2.37335 6.0439 1.83326 6.4915 1.38567C6.93909 0.938075 7.47918 0.714279 8.11177 0.714279C8.29081 0.714279 8.48178 0.738151 8.68469 0.785894C8.18339 0.917187 7.77161 1.18574 7.44934 1.59156C7.12707 1.99737 6.96594 2.46884 6.96594 3.00595ZM13.8409 19.0476H4.67428C4.01781 19.0476 3.32553 18.9193 2.59745 18.6627C1.86937 18.4061 1.2696 18.0957 0.798136 17.7317C0.326674 17.3677 0.0909424 17.0424 0.0909424 16.7559H18.4243C18.4243 17.0424 18.1885 17.3677 17.7171 17.7317C17.2456 18.0957 16.6458 18.4061 15.9178 18.6627C15.1897 18.9193 14.4974 19.0476 13.8409 19.0476Z" fill="white"/>
<path d="M26.0599 2.46753V3.27272H25.5664V3.8961H26.0599V5.79869C26.0599 6.46753 26.3522 6.73051 27.0957 6.73051C27.2677 6.73051 27.4268 6.71753 27.5145 6.69805V6.08116C27.4625 6.0909 27.3586 6.0974 27.284 6.0974C26.9983 6.0974 26.8684 5.96753 26.8684 5.68506V3.8961H27.5177V3.27272H26.8684V2.46753H26.0599ZM29.8545 6.71428H30.6629V4.73701C30.6629 4.23051 30.9584 3.89285 31.4454 3.89285C31.9129 3.89285 32.1532 4.18181 32.1532 4.66233V6.71428H32.9616V4.49675C32.9616 3.70779 32.5168 3.20779 31.7571 3.20779C31.2344 3.20779 30.8545 3.4448 30.6694 3.86363H30.6532V2.02921H29.8545V6.71428ZM36.8568 3.82792C37.3211 3.82792 37.6328 4.16882 37.649 4.65584H36.0419C36.0744 4.17532 36.4023 3.82792 36.8568 3.82792ZM37.6523 5.68506C37.5646 5.97077 37.2789 6.15908 36.9023 6.15908C36.3731 6.15908 36.0354 5.78895 36.0354 5.23701V5.18831H38.4412V4.92532C38.4412 3.87986 37.8309 3.20129 36.8536 3.20129C35.8601 3.20129 35.2302 3.91882 35.2302 5.00649C35.2302 6.10389 35.8536 6.78246 36.886 6.78246C37.701 6.78246 38.3049 6.33441 38.4088 5.68506H37.6523ZM43.7576 4.25973C43.7576 4.75649 44.079 5.08766 44.7154 5.23701L45.342 5.38311C45.6764 5.46753 45.8031 5.57467 45.8031 5.77597C45.8031 6.03246 45.5596 6.19155 45.1667 6.19155C44.7576 6.19155 44.5141 6.01623 44.4654 5.70129H43.6699C43.7251 6.35389 44.2738 6.78246 45.1375 6.78246C46.0076 6.78246 46.6083 6.34415 46.6083 5.6948C46.6083 5.18506 46.3388 4.91882 45.6505 4.75649L45.0368 4.62012C44.6992 4.53895 44.5433 4.40908 44.5433 4.21428C44.5433 3.96428 44.7771 3.79545 45.1342 3.79545C45.5109 3.79545 45.7479 3.97727 45.7738 4.27272H46.5271C46.5076 3.63636 45.9589 3.20129 45.1505 3.20129C44.3128 3.20129 43.7576 3.62986 43.7576 4.25973ZM50.3703 3.82792C50.8346 3.82792 51.1463 4.16882 51.1625 4.65584H49.5554C49.5879 4.17532 49.9158 3.82792 50.3703 3.82792ZM51.1658 5.68506C51.0781 5.97077 50.7924 6.15908 50.4158 6.15908C49.8866 6.15908 49.5489 5.78895 49.5489 5.23701V5.18831H51.9548V4.92532C51.9548 3.87986 51.3444 3.20129 50.3671 3.20129C49.3736 3.20129 48.7437 3.91882 48.7437 5.00649C48.7437 6.10389 49.3671 6.78246 50.3996 6.78246C51.2145 6.78246 51.8184 6.33441 51.9223 5.68506H51.1658ZM57.2363 3.27272H56.3922L55.5935 5.96428H55.5772L54.7785 3.27272H53.9149L55.1357 6.71428H56.0253L57.2363 3.27272ZM60.7581 3.82792C61.2224 3.82792 61.5341 4.16882 61.5503 4.65584H59.9432C59.9757 4.17532 60.3036 3.82792 60.7581 3.82792ZM61.5536 5.68506C61.4659 5.97077 61.1802 6.15908 60.8036 6.15908C60.2744 6.15908 59.9367 5.78895 59.9367 5.23701V5.18831H62.3425V4.92532C62.3425 3.87986 61.7322 3.20129 60.7549 3.20129C59.7614 3.20129 59.1315 3.91882 59.1315 5.00649C59.1315 6.10389 59.7549 6.78246 60.7873 6.78246C61.6023 6.78246 62.2062 6.33441 62.3101 5.68506H61.5536ZM64.6273 6.71428H65.4358V4.72077C65.4358 4.22727 65.7312 3.89285 66.1955 3.89285C66.6566 3.89285 66.8838 4.16558 66.8838 4.65259V6.71428H67.6923V4.49025C67.6923 3.6948 67.2605 3.20779 66.5007 3.20779C65.9715 3.20779 65.6046 3.45454 65.4196 3.86363H65.4033V3.27272H64.6273V6.71428Z" fill="white"/>
<path d="M29.1361 18.9881C30.6584 18.9881 31.712 18.1533 31.9129 16.7738H30.7834C30.6048 17.5506 29.9932 18.0104 29.1406 18.0104C28.0245 18.0104 27.3191 17.1042 27.3191 15.6577C27.3191 14.2202 28.029 13.3095 29.1361 13.3095C29.9709 13.3095 30.6272 13.8408 30.779 14.6488H31.9129C31.77 13.2649 30.6316 12.3318 29.1361 12.3318C27.3057 12.3318 26.1406 13.6042 26.1406 15.6577C26.1406 17.7247 27.2968 18.9881 29.1361 18.9881ZM37.3186 12.3318C35.4391 12.3318 34.2606 13.6131 34.2606 15.6622C34.2606 17.7113 35.4391 18.9881 37.3186 18.9881C39.1936 18.9881 40.3722 17.7113 40.3722 15.6622C40.3722 13.6131 39.1936 12.3318 37.3186 12.3318ZM37.3186 13.314C38.4659 13.314 39.1981 14.2247 39.1981 15.6622C39.1981 17.0952 38.4659 18.0059 37.3186 18.0059C36.1668 18.0059 35.4391 17.0952 35.4391 15.6622C35.4391 14.2247 36.1668 13.314 37.3186 13.314ZM44.135 18.8809V16.2515H46.8359V15.314H44.135V13.4122H47.0904V12.439H42.9832V18.8809H44.135ZM50.7729 18.8809V16.2515H53.4738V15.314H50.7729V13.4122H53.7282V12.439H49.6211V18.8809H50.7729ZM60.4286 17.9077H57.4107V16.0684H60.2634V15.1533H57.4107V13.4122H60.4286V12.439H56.259V18.8809H60.4286V17.9077ZM67.2897 17.9077H64.2718V16.0684H67.1245V15.1533H64.2718V13.4122H67.2897V12.439H63.12V18.8809H67.2897V17.9077Z" fill="white"/>
</svg>
